<mxfile host="Electron" modified="2023-05-31T04:44:44.668Z" agent="Mozilla/5.0 (Windows NT 10.0; Win64; x64) AppleWebKit/537.36 (KHTML, like Gecko) draw.io/21.2.8 Chrome/112.0.5615.165 Electron/24.2.0 Safari/537.36" etag="TAVESaBUK_C8beIqhS_O" version="21.2.8" type="device">
  <diagram id="0iN4cRk-O3f9heEpMg_g" name="Page-1">
    <mxGraphModel dx="2577" dy="1023" grid="1" gridSize="10" guides="1" tooltips="1" connect="1" arrows="1" fold="1" page="1" pageScale="1" pageWidth="850" pageHeight="1100" math="0" shadow="0">
      <root>
        <mxCell id="0" />
        <mxCell id="1" parent="0" />
        <mxCell id="29aiM7jhphycKeGwUz8S-75" value="" style="rounded=0;whiteSpace=wrap;html=1;strokeColor=#000000;strokeWidth=1;fillColor=none;fontSize=12;align=center;movable=0;resizable=0;rotatable=0;deletable=0;editable=0;locked=1;connectable=0;" parent="1" vertex="1">
          <mxGeometry x="-710" y="130" width="1220" height="950" as="geometry" />
        </mxCell>
        <mxCell id="29aiM7jhphycKeGwUz8S-73" value="" style="rounded=0;whiteSpace=wrap;html=1;dashed=1;strokeColor=#000000;fillColor=none;fontSize=10;align=center;perimeterSpacing=0;strokeWidth=1;movable=0;resizable=0;rotatable=0;deletable=0;editable=0;locked=1;connectable=0;" parent="1" vertex="1">
          <mxGeometry x="-620" y="160" width="1100" height="670" as="geometry" />
        </mxCell>
        <mxCell id="29aiM7jhphycKeGwUz8S-50" value="OPCODE [7:0]" style="text;html=1;align=left;verticalAlign=middle;resizable=0;points=[];autosize=1;fontSize=10;" parent="1" vertex="1">
          <mxGeometry x="-570" y="368" width="80" height="20" as="geometry" />
        </mxCell>
        <mxCell id="29aiM7jhphycKeGwUz8S-15" style="edgeStyle=orthogonalEdgeStyle;rounded=0;orthogonalLoop=1;jettySize=auto;html=1;exitX=1;exitY=0.75;exitDx=0;exitDy=0;" parent="1" source="29aiM7jhphycKeGwUz8S-2" target="29aiM7jhphycKeGwUz8S-3" edge="1">
          <mxGeometry relative="1" as="geometry">
            <Array as="points">
              <mxPoint x="-410" y="418" />
            </Array>
          </mxGeometry>
        </mxCell>
        <mxCell id="29aiM7jhphycKeGwUz8S-47" style="edgeStyle=orthogonalEdgeStyle;rounded=0;orthogonalLoop=1;jettySize=auto;html=1;exitX=0.75;exitY=1;exitDx=0;exitDy=0;entryX=1;entryY=0.5;entryDx=0;entryDy=0;fontSize=10;" parent="1" source="29aiM7jhphycKeGwUz8S-2" target="29aiM7jhphycKeGwUz8S-17" edge="1">
          <mxGeometry relative="1" as="geometry">
            <Array as="points">
              <mxPoint x="-430" y="518" />
              <mxPoint x="-80" y="518" />
            </Array>
          </mxGeometry>
        </mxCell>
        <mxCell id="29aiM7jhphycKeGwUz8S-48" style="edgeStyle=orthogonalEdgeStyle;rounded=0;orthogonalLoop=1;jettySize=auto;html=1;exitX=0.5;exitY=1;exitDx=0;exitDy=0;entryX=1;entryY=0.5;entryDx=0;entryDy=0;fontSize=10;" parent="1" source="29aiM7jhphycKeGwUz8S-2" target="29aiM7jhphycKeGwUz8S-31" edge="1">
          <mxGeometry relative="1" as="geometry">
            <Array as="points">
              <mxPoint x="-450" y="528" />
              <mxPoint x="-20" y="528" />
            </Array>
          </mxGeometry>
        </mxCell>
        <mxCell id="29aiM7jhphycKeGwUz8S-49" style="edgeStyle=orthogonalEdgeStyle;rounded=0;orthogonalLoop=1;jettySize=auto;html=1;exitX=0.25;exitY=1;exitDx=0;exitDy=0;fontSize=10;entryX=0.504;entryY=0.83;entryDx=0;entryDy=0;entryPerimeter=0;strokeWidth=2;" parent="1" source="29aiM7jhphycKeGwUz8S-2" target="29aiM7jhphycKeGwUz8S-42" edge="1">
          <mxGeometry relative="1" as="geometry">
            <Array as="points">
              <mxPoint x="-470" y="538" />
              <mxPoint x="70" y="538" />
            </Array>
          </mxGeometry>
        </mxCell>
        <mxCell id="Jcaq-J-UfYVYLr0MSTlf-4" style="edgeStyle=orthogonalEdgeStyle;rounded=0;orthogonalLoop=1;jettySize=auto;html=1;exitX=0.75;exitY=0;exitDx=0;exitDy=0;entryX=0;entryY=0.25;entryDx=0;entryDy=0;entryPerimeter=0;" parent="1" source="29aiM7jhphycKeGwUz8S-2" target="Jcaq-J-UfYVYLr0MSTlf-1" edge="1">
          <mxGeometry relative="1" as="geometry">
            <mxPoint x="-460" y="263" as="targetPoint" />
          </mxGeometry>
        </mxCell>
        <mxCell id="Jcaq-J-UfYVYLr0MSTlf-7" style="edgeStyle=orthogonalEdgeStyle;rounded=0;orthogonalLoop=1;jettySize=auto;html=1;exitX=0.25;exitY=0;exitDx=0;exitDy=0;entryX=0.175;entryY=0.25;entryDx=0;entryDy=0;entryPerimeter=0;" parent="1" source="29aiM7jhphycKeGwUz8S-2" target="Jcaq-J-UfYVYLr0MSTlf-2" edge="1">
          <mxGeometry relative="1" as="geometry">
            <Array as="points">
              <mxPoint x="-470" y="193" />
              <mxPoint x="280" y="193" />
            </Array>
          </mxGeometry>
        </mxCell>
        <mxCell id="29aiM7jhphycKeGwUz8S-2" value="Control Unit" style="rounded=0;whiteSpace=wrap;html=1;" parent="1" vertex="1">
          <mxGeometry x="-490" y="328" width="80" height="120" as="geometry" />
        </mxCell>
        <mxCell id="29aiM7jhphycKeGwUz8S-19" style="edgeStyle=orthogonalEdgeStyle;rounded=0;orthogonalLoop=1;jettySize=auto;html=1;exitX=1;exitY=0.25;exitDx=0;exitDy=0;entryX=0.25;entryY=1;entryDx=0;entryDy=0;strokeWidth=2;" parent="1" source="29aiM7jhphycKeGwUz8S-3" target="29aiM7jhphycKeGwUz8S-17" edge="1">
          <mxGeometry relative="1" as="geometry" />
        </mxCell>
        <mxCell id="29aiM7jhphycKeGwUz8S-23" style="edgeStyle=orthogonalEdgeStyle;rounded=0;orthogonalLoop=1;jettySize=auto;html=1;exitX=1;exitY=0.25;exitDx=0;exitDy=0;entryX=0;entryY=0.5;entryDx=0;entryDy=0;strokeWidth=2;" parent="1" source="29aiM7jhphycKeGwUz8S-3" target="29aiM7jhphycKeGwUz8S-16" edge="1">
          <mxGeometry relative="1" as="geometry">
            <Array as="points">
              <mxPoint x="-180" y="348" />
              <mxPoint x="-180" y="388" />
            </Array>
          </mxGeometry>
        </mxCell>
        <mxCell id="29aiM7jhphycKeGwUz8S-46" style="edgeStyle=orthogonalEdgeStyle;rounded=0;orthogonalLoop=1;jettySize=auto;html=1;exitX=1;exitY=0.75;exitDx=0;exitDy=0;entryX=-0.016;entryY=0.735;entryDx=0;entryDy=0;entryPerimeter=0;fontSize=10;strokeWidth=2;" parent="1" source="29aiM7jhphycKeGwUz8S-3" target="29aiM7jhphycKeGwUz8S-42" edge="1">
          <mxGeometry relative="1" as="geometry" />
        </mxCell>
        <mxCell id="29aiM7jhphycKeGwUz8S-3" value="8x8 Register File" style="rounded=0;whiteSpace=wrap;html=1;" parent="1" vertex="1">
          <mxGeometry x="-270" y="308" width="80" height="160" as="geometry" />
        </mxCell>
        <mxCell id="29aiM7jhphycKeGwUz8S-8" style="edgeStyle=orthogonalEdgeStyle;rounded=0;orthogonalLoop=1;jettySize=auto;html=1;exitX=0;exitY=0.5;exitDx=0;exitDy=0;entryX=0;entryY=0.5;entryDx=0;entryDy=0;strokeWidth=2;" parent="1" source="29aiM7jhphycKeGwUz8S-4" target="29aiM7jhphycKeGwUz8S-2" edge="1">
          <mxGeometry relative="1" as="geometry">
            <Array as="points">
              <mxPoint x="-580" y="708" />
              <mxPoint x="-580" y="388" />
            </Array>
          </mxGeometry>
        </mxCell>
        <mxCell id="29aiM7jhphycKeGwUz8S-11" style="edgeStyle=orthogonalEdgeStyle;rounded=0;orthogonalLoop=1;jettySize=auto;html=1;exitX=0;exitY=0.5;exitDx=0;exitDy=0;entryX=0;entryY=0.125;entryDx=0;entryDy=0;entryPerimeter=0;strokeWidth=2;" parent="1" source="29aiM7jhphycKeGwUz8S-4" target="29aiM7jhphycKeGwUz8S-3" edge="1">
          <mxGeometry relative="1" as="geometry">
            <mxPoint x="-330" y="328" as="targetPoint" />
            <Array as="points">
              <mxPoint x="-580" y="708" />
              <mxPoint x="-580" y="268" />
              <mxPoint x="-370" y="268" />
              <mxPoint x="-370" y="328" />
            </Array>
          </mxGeometry>
        </mxCell>
        <mxCell id="29aiM7jhphycKeGwUz8S-12" style="edgeStyle=orthogonalEdgeStyle;rounded=0;orthogonalLoop=1;jettySize=auto;html=1;exitX=0;exitY=0.5;exitDx=0;exitDy=0;strokeWidth=2;" parent="1" source="29aiM7jhphycKeGwUz8S-4" target="29aiM7jhphycKeGwUz8S-3" edge="1">
          <mxGeometry relative="1" as="geometry">
            <mxPoint x="-330" y="358" as="targetPoint" />
            <Array as="points">
              <mxPoint x="-580" y="278" />
              <mxPoint x="-380" y="278" />
              <mxPoint x="-380" y="360" />
            </Array>
          </mxGeometry>
        </mxCell>
        <mxCell id="29aiM7jhphycKeGwUz8S-13" style="edgeStyle=orthogonalEdgeStyle;rounded=0;orthogonalLoop=1;jettySize=auto;html=1;exitX=0;exitY=0.5;exitDx=0;exitDy=0;entryX=0;entryY=0.5;entryDx=0;entryDy=0;strokeWidth=2;" parent="1" source="29aiM7jhphycKeGwUz8S-4" target="29aiM7jhphycKeGwUz8S-3" edge="1">
          <mxGeometry relative="1" as="geometry">
            <Array as="points">
              <mxPoint x="-580" y="708" />
              <mxPoint x="-580" y="288" />
              <mxPoint x="-390" y="288" />
              <mxPoint x="-390" y="388" />
            </Array>
          </mxGeometry>
        </mxCell>
        <mxCell id="29aiM7jhphycKeGwUz8S-33" style="edgeStyle=orthogonalEdgeStyle;rounded=0;orthogonalLoop=1;jettySize=auto;html=1;exitX=0;exitY=0.5;exitDx=0;exitDy=0;entryX=0.25;entryY=1;entryDx=0;entryDy=0;fontSize=10;strokeWidth=2;" parent="1" source="29aiM7jhphycKeGwUz8S-4" target="29aiM7jhphycKeGwUz8S-31" edge="1">
          <mxGeometry relative="1" as="geometry">
            <Array as="points">
              <mxPoint x="-580" y="708" />
              <mxPoint x="-580" y="258" />
              <mxPoint x="-50" y="258" />
              <mxPoint x="-50" y="328" />
            </Array>
          </mxGeometry>
        </mxCell>
        <mxCell id="29aiM7jhphycKeGwUz8S-4" value="Instruction Memory" style="rounded=0;whiteSpace=wrap;html=1;" parent="1" vertex="1">
          <mxGeometry x="-580" y="880" width="80" height="160" as="geometry" />
        </mxCell>
        <mxCell id="29aiM7jhphycKeGwUz8S-7" style="edgeStyle=orthogonalEdgeStyle;rounded=0;orthogonalLoop=1;jettySize=auto;html=1;exitX=1;exitY=0.5;exitDx=0;exitDy=0;entryX=1;entryY=0.25;entryDx=0;entryDy=0;strokeWidth=2;" parent="1" source="29aiM7jhphycKeGwUz8S-6" target="Jcaq-J-UfYVYLr0MSTlf-13" edge="1">
          <mxGeometry relative="1" as="geometry">
            <Array as="points">
              <mxPoint x="-35" y="641" />
              <mxPoint x="-35" y="665" />
            </Array>
          </mxGeometry>
        </mxCell>
        <mxCell id="Jcaq-J-UfYVYLr0MSTlf-41" style="edgeStyle=orthogonalEdgeStyle;rounded=0;orthogonalLoop=1;jettySize=auto;html=1;entryX=1.002;entryY=0.595;entryDx=0;entryDy=0;entryPerimeter=0;" parent="1" source="29aiM7jhphycKeGwUz8S-6" target="29aiM7jhphycKeGwUz8S-4" edge="1">
          <mxGeometry relative="1" as="geometry">
            <Array as="points">
              <mxPoint x="-470" y="975" />
            </Array>
          </mxGeometry>
        </mxCell>
        <mxCell id="29aiM7jhphycKeGwUz8S-6" value="PC" style="rounded=0;whiteSpace=wrap;html=1;" parent="1" vertex="1">
          <mxGeometry x="-485" y="621" width="80" height="40" as="geometry" />
        </mxCell>
        <mxCell id="29aiM7jhphycKeGwUz8S-20" style="edgeStyle=orthogonalEdgeStyle;rounded=0;orthogonalLoop=1;jettySize=auto;html=1;exitX=1;exitY=0.5;exitDx=0;exitDy=0;entryX=0.75;entryY=1;entryDx=0;entryDy=0;strokeWidth=2;" parent="1" source="29aiM7jhphycKeGwUz8S-16" target="29aiM7jhphycKeGwUz8S-17" edge="1">
          <mxGeometry relative="1" as="geometry" />
        </mxCell>
        <mxCell id="29aiM7jhphycKeGwUz8S-16" value="2&#39;s Comp" style="rounded=0;whiteSpace=wrap;html=1;" parent="1" vertex="1">
          <mxGeometry x="-160" y="373" width="50" height="30" as="geometry" />
        </mxCell>
        <mxCell id="29aiM7jhphycKeGwUz8S-32" style="edgeStyle=orthogonalEdgeStyle;rounded=0;orthogonalLoop=1;jettySize=auto;html=1;exitX=0.5;exitY=0;exitDx=0;exitDy=0;entryX=0.75;entryY=1;entryDx=0;entryDy=0;fontSize=10;strokeWidth=2;" parent="1" source="29aiM7jhphycKeGwUz8S-17" target="29aiM7jhphycKeGwUz8S-31" edge="1">
          <mxGeometry relative="1" as="geometry" />
        </mxCell>
        <mxCell id="29aiM7jhphycKeGwUz8S-17" value="M&lt;br&gt;U&lt;br&gt;X" style="shape=trapezoid;perimeter=trapezoidPerimeter;whiteSpace=wrap;html=1;rotation=90;horizontal=0;" parent="1" vertex="1">
          <mxGeometry x="-120" y="354.25" width="80" height="27.5" as="geometry" />
        </mxCell>
        <mxCell id="29aiM7jhphycKeGwUz8S-24" value="READREG2 [2:0]" style="text;html=1;align=left;verticalAlign=middle;resizable=0;points=[];autosize=1;fontSize=10;" parent="1" vertex="1">
          <mxGeometry x="-363" y="308" width="90" height="20" as="geometry" />
        </mxCell>
        <mxCell id="29aiM7jhphycKeGwUz8S-25" value="READREG1 [2:0]" style="text;html=1;align=left;verticalAlign=middle;resizable=0;points=[];autosize=1;fontSize=10;" parent="1" vertex="1">
          <mxGeometry x="-363" y="338.25" width="90" height="20" as="geometry" />
        </mxCell>
        <mxCell id="29aiM7jhphycKeGwUz8S-26" value="WRITEREG [2:0]" style="text;html=1;align=left;verticalAlign=middle;resizable=0;points=[];autosize=1;fontSize=10;" parent="1" vertex="1">
          <mxGeometry x="-363" y="368" width="90" height="20" as="geometry" />
        </mxCell>
        <mxCell id="29aiM7jhphycKeGwUz8S-27" value="WRITEENABLE" style="text;html=1;align=left;verticalAlign=middle;resizable=0;points=[];autosize=1;fontSize=10;" parent="1" vertex="1">
          <mxGeometry x="-363" y="398" width="90" height="20" as="geometry" />
        </mxCell>
        <mxCell id="29aiM7jhphycKeGwUz8S-30" value="REGOUT2 [7:0]" style="text;html=1;strokeColor=none;fillColor=none;align=center;verticalAlign=middle;whiteSpace=wrap;rounded=0;fontSize=10;" parent="1" vertex="1">
          <mxGeometry x="-190" y="328" width="80" height="20" as="geometry" />
        </mxCell>
        <mxCell id="29aiM7jhphycKeGwUz8S-43" style="edgeStyle=orthogonalEdgeStyle;rounded=0;orthogonalLoop=1;jettySize=auto;html=1;exitX=0.5;exitY=0;exitDx=0;exitDy=0;fontSize=10;strokeWidth=2;" parent="1" source="29aiM7jhphycKeGwUz8S-31" edge="1">
          <mxGeometry relative="1" as="geometry">
            <mxPoint x="29" y="348" as="targetPoint" />
          </mxGeometry>
        </mxCell>
        <mxCell id="29aiM7jhphycKeGwUz8S-31" value="M&lt;br&gt;U&lt;br&gt;X" style="shape=trapezoid;perimeter=trapezoidPerimeter;whiteSpace=wrap;html=1;rotation=90;horizontal=0;" parent="1" vertex="1">
          <mxGeometry x="-60" y="334.5" width="80" height="27.5" as="geometry" />
        </mxCell>
        <mxCell id="29aiM7jhphycKeGwUz8S-34" value="IMMEDIATE [7:0]" style="text;html=1;align=center;verticalAlign=middle;resizable=0;points=[];autosize=1;fontSize=10;" parent="1" vertex="1">
          <mxGeometry x="-330" y="238" width="90" height="20" as="geometry" />
        </mxCell>
        <mxCell id="29aiM7jhphycKeGwUz8S-44" style="edgeStyle=orthogonalEdgeStyle;rounded=0;orthogonalLoop=1;jettySize=auto;html=1;exitX=0.702;exitY=0.507;exitDx=0;exitDy=0;entryX=-0.005;entryY=0.864;entryDx=0;entryDy=0;entryPerimeter=0;fontSize=10;exitPerimeter=0;strokeWidth=2;" parent="1" source="29aiM7jhphycKeGwUz8S-42" target="29aiM7jhphycKeGwUz8S-3" edge="1">
          <mxGeometry relative="1" as="geometry">
            <Array as="points">
              <mxPoint x="86" y="393" />
              <mxPoint x="130" y="393" />
              <mxPoint x="130" y="508" />
              <mxPoint x="-290" y="508" />
              <mxPoint x="-290" y="446" />
            </Array>
          </mxGeometry>
        </mxCell>
        <mxCell id="29aiM7jhphycKeGwUz8S-42" value="&amp;nbsp; &amp;nbsp; &amp;nbsp; &amp;nbsp;ALU" style="shape=stencil(vZXdjoMgEIWfhtsGYY3XG3f3PailKykFA/Tv7TuKNmJL2zRiYgwwx+8wZAYRLW3NGo4IrhH9QYRkGMMb5qfJnNmGV84vHpkRbC25j1hn9I6fxMb1DKFqboRro/QX4W/QtM9tQMtKKwU0oZUNJBPhSA4mTChg4rM36bd1CWYN+O6546bfvF9F5O9jl1W+iE+2TDahy5Bb6myS+YT5ZAvVQCqfbDYXWoIg1mMj1ZpVu3+jD2rzkhaRjkRbbfhr2E0tpPQXx/uH1rD2hrnTPVQP3+z1kUcb4NlhPqVKoUbUIsSSPA23mIs7aZvhhp+ZmxczYafcNNv9oh9jK6ltvIwjxQziSD3fSd/tkw4aaUMYdGH/u+8iVw==);whiteSpace=wrap;html=1;strokeColor=#000000;fillColor=#ffffff;fontSize=10;align=left;" parent="1" vertex="1">
          <mxGeometry x="30" y="303" width="80" height="170" as="geometry" />
        </mxCell>
        <mxCell id="29aiM7jhphycKeGwUz8S-51" value="INSTRUCTION&lt;br&gt;[31:0]" style="text;html=1;align=left;verticalAlign=middle;resizable=0;points=[];autosize=1;fontSize=10;" parent="1" vertex="1">
          <mxGeometry x="-577" y="737.5" width="80" height="30" as="geometry" />
        </mxCell>
        <mxCell id="29aiM7jhphycKeGwUz8S-53" value="PC [31:0]" style="text;html=1;align=left;verticalAlign=middle;resizable=0;points=[];autosize=1;fontSize=10;" parent="1" vertex="1">
          <mxGeometry x="-310" y="617" width="70" height="30" as="geometry" />
        </mxCell>
        <mxCell id="29aiM7jhphycKeGwUz8S-55" style="edgeStyle=orthogonalEdgeStyle;rounded=0;orthogonalLoop=1;jettySize=auto;html=1;entryX=0;entryY=0.25;entryDx=0;entryDy=0;fontSize=10;" parent="1" source="29aiM7jhphycKeGwUz8S-54" target="29aiM7jhphycKeGwUz8S-6" edge="1">
          <mxGeometry relative="1" as="geometry">
            <Array as="points">
              <mxPoint x="-555" y="631" />
              <mxPoint x="-555" y="631" />
            </Array>
          </mxGeometry>
        </mxCell>
        <mxCell id="29aiM7jhphycKeGwUz8S-56" style="edgeStyle=orthogonalEdgeStyle;rounded=0;orthogonalLoop=1;jettySize=auto;html=1;exitX=1;exitY=0.5;exitDx=0;exitDy=0;entryX=0.25;entryY=1;entryDx=0;entryDy=0;fontSize=10;" parent="1" source="29aiM7jhphycKeGwUz8S-54" target="29aiM7jhphycKeGwUz8S-3" edge="1">
          <mxGeometry relative="1" as="geometry">
            <Array as="points">
              <mxPoint x="-650" y="488" />
              <mxPoint x="-250" y="488" />
            </Array>
          </mxGeometry>
        </mxCell>
        <mxCell id="29aiM7jhphycKeGwUz8S-54" value="RESET" style="text;html=1;strokeColor=none;fillColor=none;align=right;verticalAlign=middle;whiteSpace=wrap;rounded=0;fontSize=10;" parent="1" vertex="1">
          <mxGeometry x="-765" y="621" width="40" height="20" as="geometry" />
        </mxCell>
        <mxCell id="29aiM7jhphycKeGwUz8S-60" style="edgeStyle=orthogonalEdgeStyle;rounded=0;orthogonalLoop=1;jettySize=auto;html=1;exitX=1;exitY=0.5;exitDx=0;exitDy=0;entryX=0;entryY=0.75;entryDx=0;entryDy=0;fontSize=10;" parent="1" source="29aiM7jhphycKeGwUz8S-57" target="29aiM7jhphycKeGwUz8S-6" edge="1">
          <mxGeometry relative="1" as="geometry" />
        </mxCell>
        <mxCell id="29aiM7jhphycKeGwUz8S-61" style="edgeStyle=orthogonalEdgeStyle;rounded=0;orthogonalLoop=1;jettySize=auto;html=1;exitX=1;exitY=0.5;exitDx=0;exitDy=0;entryX=0.75;entryY=1;entryDx=0;entryDy=0;fontSize=10;" parent="1" source="29aiM7jhphycKeGwUz8S-57" target="29aiM7jhphycKeGwUz8S-3" edge="1">
          <mxGeometry relative="1" as="geometry">
            <Array as="points">
              <mxPoint x="-590" y="651" />
              <mxPoint x="-590" y="498" />
              <mxPoint x="-210" y="498" />
            </Array>
          </mxGeometry>
        </mxCell>
        <mxCell id="29aiM7jhphycKeGwUz8S-57" value="CLK" style="text;html=1;strokeColor=none;fillColor=none;align=right;verticalAlign=middle;whiteSpace=wrap;rounded=0;fontSize=10;" parent="1" vertex="1">
          <mxGeometry x="-765" y="641" width="40" height="20" as="geometry" />
        </mxCell>
        <mxCell id="29aiM7jhphycKeGwUz8S-64" value="" style="triangle;whiteSpace=wrap;html=1;strokeColor=#000000;fillColor=#ffffff;fontSize=10;align=right;" parent="1" vertex="1">
          <mxGeometry x="-485" y="647" width="6" height="8" as="geometry" />
        </mxCell>
        <mxCell id="29aiM7jhphycKeGwUz8S-65" value="" style="triangle;whiteSpace=wrap;html=1;strokeColor=#000000;fillColor=#ffffff;fontSize=10;align=right;rotation=-90;" parent="1" vertex="1">
          <mxGeometry x="-213" y="461" width="6" height="8" as="geometry" />
        </mxCell>
        <mxCell id="29aiM7jhphycKeGwUz8S-66" value="REGOUT1 [7:0]" style="text;html=1;strokeColor=none;fillColor=none;align=center;verticalAlign=middle;whiteSpace=wrap;rounded=0;fontSize=10;" parent="1" vertex="1">
          <mxGeometry x="-190" y="408" width="80" height="20" as="geometry" />
        </mxCell>
        <mxCell id="29aiM7jhphycKeGwUz8S-67" value="ALUOP [2:0]" style="text;html=1;align=center;verticalAlign=middle;resizable=0;points=[];autosize=1;fontSize=10;" parent="1" vertex="1">
          <mxGeometry y="473" width="70" height="20" as="geometry" />
        </mxCell>
        <mxCell id="29aiM7jhphycKeGwUz8S-68" value="ALURESULT [7:0]" style="text;html=1;align=center;verticalAlign=middle;resizable=0;points=[];autosize=1;fontSize=10;rotation=90;" parent="1" vertex="1">
          <mxGeometry x="90" y="441" width="100" height="20" as="geometry" />
        </mxCell>
        <mxCell id="29aiM7jhphycKeGwUz8S-74" value="CPU" style="text;html=1;align=center;verticalAlign=middle;resizable=0;points=[];autosize=1;fontSize=12;" parent="1" vertex="1">
          <mxGeometry x="450" y="150" width="40" height="20" as="geometry" />
        </mxCell>
        <mxCell id="Jcaq-J-UfYVYLr0MSTlf-10" style="edgeStyle=orthogonalEdgeStyle;rounded=0;orthogonalLoop=1;jettySize=auto;html=1;entryX=0.175;entryY=0.75;entryDx=0;entryDy=0;entryPerimeter=0;" parent="1" source="Jcaq-J-UfYVYLr0MSTlf-1" target="Jcaq-J-UfYVYLr0MSTlf-2" edge="1">
          <mxGeometry relative="1" as="geometry" />
        </mxCell>
        <mxCell id="Jcaq-J-UfYVYLr0MSTlf-1" value="" style="shape=or;whiteSpace=wrap;html=1;" parent="1" vertex="1">
          <mxGeometry x="210" y="218" width="40" height="40" as="geometry" />
        </mxCell>
        <mxCell id="Jcaq-J-UfYVYLr0MSTlf-29" style="edgeStyle=orthogonalEdgeStyle;rounded=0;orthogonalLoop=1;jettySize=auto;html=1;entryX=1;entryY=0.5;entryDx=0;entryDy=0;" parent="1" source="Jcaq-J-UfYVYLr0MSTlf-2" target="Jcaq-J-UfYVYLr0MSTlf-17" edge="1">
          <mxGeometry relative="1" as="geometry">
            <Array as="points">
              <mxPoint x="430" y="201" />
              <mxPoint x="430" y="810" />
              <mxPoint x="-340" y="810" />
            </Array>
          </mxGeometry>
        </mxCell>
        <mxCell id="Jcaq-J-UfYVYLr0MSTlf-2" value="" style="shape=xor;whiteSpace=wrap;html=1;" parent="1" vertex="1">
          <mxGeometry x="300" y="183" width="40" height="36" as="geometry" />
        </mxCell>
        <mxCell id="Jcaq-J-UfYVYLr0MSTlf-9" value="ZERO" style="endArrow=classic;html=1;rounded=0;exitX=0.718;exitY=0.367;exitDx=0;exitDy=0;exitPerimeter=0;edgeStyle=orthogonalEdgeStyle;fontSize=10;" parent="1" source="29aiM7jhphycKeGwUz8S-42" target="Jcaq-J-UfYVYLr0MSTlf-1" edge="1">
          <mxGeometry x="-0.0086" y="-20" width="50" height="50" relative="1" as="geometry">
            <mxPoint x="80" y="380" as="sourcePoint" />
            <mxPoint x="130" y="330" as="targetPoint" />
            <Array as="points">
              <mxPoint x="180" y="365" />
              <mxPoint x="180" y="250" />
            </Array>
            <mxPoint as="offset" />
          </mxGeometry>
        </mxCell>
        <mxCell id="Jcaq-J-UfYVYLr0MSTlf-11" value="BEQSELECT" style="text;html=1;align=center;verticalAlign=middle;resizable=0;points=[];autosize=1;fontSize=10;" parent="1" vertex="1">
          <mxGeometry x="-325" y="203" width="80" height="30" as="geometry" />
        </mxCell>
        <mxCell id="Jcaq-J-UfYVYLr0MSTlf-12" value="JUMPSELECT" style="text;html=1;align=center;verticalAlign=middle;resizable=0;points=[];autosize=1;fontSize=10;" parent="1" vertex="1">
          <mxGeometry x="-330" y="168" width="90" height="30" as="geometry" />
        </mxCell>
        <mxCell id="Jcaq-J-UfYVYLr0MSTlf-25" style="edgeStyle=orthogonalEdgeStyle;rounded=0;orthogonalLoop=1;jettySize=auto;html=1;entryX=0.25;entryY=0;entryDx=0;entryDy=0;" parent="1" source="Jcaq-J-UfYVYLr0MSTlf-13" target="Jcaq-J-UfYVYLr0MSTlf-17" edge="1">
          <mxGeometry relative="1" as="geometry">
            <Array as="points">
              <mxPoint x="-310" y="675" />
              <mxPoint x="-310" y="704" />
            </Array>
          </mxGeometry>
        </mxCell>
        <mxCell id="Jcaq-J-UfYVYLr0MSTlf-13" value="pc_add" style="rounded=0;whiteSpace=wrap;html=1;" parent="1" vertex="1">
          <mxGeometry x="-175" y="655" width="80" height="40" as="geometry" />
        </mxCell>
        <mxCell id="Jcaq-J-UfYVYLr0MSTlf-26" style="edgeStyle=orthogonalEdgeStyle;rounded=0;orthogonalLoop=1;jettySize=auto;html=1;entryX=0.75;entryY=0;entryDx=0;entryDy=0;" parent="1" source="Jcaq-J-UfYVYLr0MSTlf-14" target="Jcaq-J-UfYVYLr0MSTlf-17" edge="1">
          <mxGeometry relative="1" as="geometry">
            <Array as="points">
              <mxPoint x="-310" y="763" />
              <mxPoint x="-310" y="744" />
            </Array>
          </mxGeometry>
        </mxCell>
        <mxCell id="Jcaq-J-UfYVYLr0MSTlf-14" value="pc_add_j_beq" style="rounded=0;whiteSpace=wrap;html=1;" parent="1" vertex="1">
          <mxGeometry x="-175" y="743" width="120" height="40" as="geometry" />
        </mxCell>
        <mxCell id="Jcaq-J-UfYVYLr0MSTlf-23" style="edgeStyle=orthogonalEdgeStyle;rounded=0;orthogonalLoop=1;jettySize=auto;html=1;entryX=1;entryY=0.75;entryDx=0;entryDy=0;" parent="1" source="Jcaq-J-UfYVYLr0MSTlf-15" target="Jcaq-J-UfYVYLr0MSTlf-14" edge="1">
          <mxGeometry relative="1" as="geometry">
            <Array as="points">
              <mxPoint x="25" y="773" />
              <mxPoint x="25" y="773" />
            </Array>
          </mxGeometry>
        </mxCell>
        <mxCell id="Jcaq-J-UfYVYLr0MSTlf-15" value="shift" style="rounded=0;whiteSpace=wrap;html=1;" parent="1" vertex="1">
          <mxGeometry x="60" y="743" width="80" height="40" as="geometry" />
        </mxCell>
        <mxCell id="Jcaq-J-UfYVYLr0MSTlf-24" style="edgeStyle=orthogonalEdgeStyle;rounded=0;orthogonalLoop=1;jettySize=auto;html=1;entryX=1;entryY=0.5;entryDx=0;entryDy=0;" parent="1" source="Jcaq-J-UfYVYLr0MSTlf-16" target="Jcaq-J-UfYVYLr0MSTlf-15" edge="1">
          <mxGeometry relative="1" as="geometry" />
        </mxCell>
        <mxCell id="Jcaq-J-UfYVYLr0MSTlf-16" value="sign_extend" style="rounded=0;whiteSpace=wrap;html=1;" parent="1" vertex="1">
          <mxGeometry x="290" y="743" width="80" height="40" as="geometry" />
        </mxCell>
        <mxCell id="Jcaq-J-UfYVYLr0MSTlf-27" style="edgeStyle=orthogonalEdgeStyle;rounded=0;orthogonalLoop=1;jettySize=auto;html=1;entryX=0.565;entryY=0.994;entryDx=0;entryDy=0;entryPerimeter=0;" parent="1" source="Jcaq-J-UfYVYLr0MSTlf-17" target="29aiM7jhphycKeGwUz8S-6" edge="1">
          <mxGeometry relative="1" as="geometry">
            <mxPoint x="-460" y="690" as="targetPoint" />
            <Array as="points">
              <mxPoint x="-440" y="724" />
              <mxPoint x="-440" y="680" />
              <mxPoint x="-440" y="680" />
            </Array>
          </mxGeometry>
        </mxCell>
        <mxCell id="Jcaq-J-UfYVYLr0MSTlf-17" value="M&lt;br&gt;U&lt;br&gt;X" style="shape=trapezoid;perimeter=trapezoidPerimeter;whiteSpace=wrap;html=1;rotation=90;horizontal=0;flipH=1;flipV=1;" parent="1" vertex="1">
          <mxGeometry x="-380" y="710" width="80" height="27.5" as="geometry" />
        </mxCell>
        <mxCell id="Jcaq-J-UfYVYLr0MSTlf-19" value="" style="endArrow=classic;html=1;rounded=0;edgeStyle=orthogonalEdgeStyle;entryX=1;entryY=0.5;entryDx=0;entryDy=0;" parent="1" target="Jcaq-J-UfYVYLr0MSTlf-14" edge="1">
          <mxGeometry width="50" height="50" relative="1" as="geometry">
            <mxPoint x="-580" y="614" as="sourcePoint" />
            <mxPoint x="355" y="753" as="targetPoint" />
            <Array as="points">
              <mxPoint x="30" y="614" />
              <mxPoint x="30" y="763" />
            </Array>
          </mxGeometry>
        </mxCell>
        <mxCell id="Jcaq-J-UfYVYLr0MSTlf-22" value="" style="endArrow=classic;html=1;rounded=0;entryX=1;entryY=0.25;entryDx=0;entryDy=0;edgeStyle=orthogonalEdgeStyle;strokeWidth=2;" parent="1" target="Jcaq-J-UfYVYLr0MSTlf-14" edge="1">
          <mxGeometry width="50" height="50" relative="1" as="geometry">
            <mxPoint x="-35" y="663" as="sourcePoint" />
            <mxPoint x="-105" y="663" as="targetPoint" />
            <Array as="points">
              <mxPoint x="-35" y="753" />
            </Array>
          </mxGeometry>
        </mxCell>
        <mxCell id="Jcaq-J-UfYVYLr0MSTlf-30" value="INSTRUCTION [31:0]" style="text;html=1;align=left;verticalAlign=middle;resizable=0;points=[];autosize=1;fontSize=10;" parent="1" vertex="1">
          <mxGeometry x="-130" y="590" width="120" height="30" as="geometry" />
        </mxCell>
        <mxCell id="Jcaq-J-UfYVYLr0MSTlf-32" style="edgeStyle=orthogonalEdgeStyle;rounded=0;orthogonalLoop=1;jettySize=auto;html=1;" parent="1" source="Jcaq-J-UfYVYLr0MSTlf-31" target="Jcaq-J-UfYVYLr0MSTlf-16" edge="1">
          <mxGeometry relative="1" as="geometry">
            <Array as="points">
              <mxPoint x="-530" y="438" />
              <mxPoint x="-530" y="590" />
              <mxPoint x="330" y="590" />
            </Array>
          </mxGeometry>
        </mxCell>
        <mxCell id="Jcaq-J-UfYVYLr0MSTlf-31" value="DECODER" style="rounded=0;whiteSpace=wrap;html=1;" parent="1" vertex="1">
          <mxGeometry x="-620" y="418" width="80" height="40" as="geometry" />
        </mxCell>
        <mxCell id="Jcaq-J-UfYVYLr0MSTlf-33" value="OFFSET [7:0]" style="text;html=1;align=left;verticalAlign=middle;resizable=0;points=[];autosize=1;fontSize=10;" parent="1" vertex="1">
          <mxGeometry x="-130" y="567" width="90" height="30" as="geometry" />
        </mxCell>
        <mxCell id="Jcaq-J-UfYVYLr0MSTlf-34" value="SC_OFFSET [31:0]" style="text;html=1;align=left;verticalAlign=middle;resizable=0;points=[];autosize=1;fontSize=10;" parent="1" vertex="1">
          <mxGeometry x="-40" y="767.5" width="110" height="30" as="geometry" />
        </mxCell>
        <mxCell id="Jcaq-J-UfYVYLr0MSTlf-36" value="PCUPDATED" style="text;html=1;align=left;verticalAlign=middle;resizable=0;points=[];autosize=1;fontSize=10;" parent="1" vertex="1">
          <mxGeometry x="-443" y="670" width="80" height="30" as="geometry" />
        </mxCell>
        <mxCell id="Jcaq-J-UfYVYLr0MSTlf-37" value="PCADDED_J_BEQ" style="text;html=1;align=left;verticalAlign=middle;resizable=0;points=[];autosize=1;fontSize=10;" parent="1" vertex="1">
          <mxGeometry x="-285" y="735.5" width="110" height="30" as="geometry" />
        </mxCell>
        <mxCell id="Jcaq-J-UfYVYLr0MSTlf-38" value="is_J_OR_BEQ" style="text;html=1;align=left;verticalAlign=middle;resizable=0;points=[];autosize=1;fontSize=10;" parent="1" vertex="1">
          <mxGeometry x="-285" y="783" width="90" height="30" as="geometry" />
        </mxCell>
        <mxCell id="Jcaq-J-UfYVYLr0MSTlf-42" value="PC [31:0]" style="text;html=1;align=left;verticalAlign=middle;resizable=0;points=[];autosize=1;fontSize=10;" parent="1" vertex="1">
          <mxGeometry x="-461" y="850" width="70" height="30" as="geometry" />
        </mxCell>
        <mxCell id="RmKipvwCkugtQ9GfPDfJ-1" value="PCADDED" style="text;html=1;align=left;verticalAlign=middle;resizable=0;points=[];autosize=1;fontSize=10;" parent="1" vertex="1">
          <mxGeometry x="-245" y="670" width="70" height="30" as="geometry" />
        </mxCell>
        <mxCell id="RmKipvwCkugtQ9GfPDfJ-5" value="SC_OFFSET_SHIFTED [31:0]" style="text;html=1;align=left;verticalAlign=middle;resizable=0;points=[];autosize=1;fontSize=10;" parent="1" vertex="1">
          <mxGeometry x="150" y="760" width="160" height="30" as="geometry" />
        </mxCell>
      </root>
    </mxGraphModel>
  </diagram>
</mxfile>
